<svg xmlns="http://www.w3.org/2000/svg" width="113" height="45" viewBox="0 0 113 45"><g transform="translate(-189.28571 -431.64791)"><path d="m191.78571 431.64791c-1.385 0-2.5 1.115-2.5 2.5v40c0 1.385 1.115 2.5 2.5 2.5h80c1.385 0 2.5-1.115 2.5-2.5v-5h25c1.385 0 2.5-1.115 2.5-2.5v-25c0-1.385-1.115-2.5-2.5-2.5h-25v-5c0-1.385-1.115-2.5-2.5-2.5zm11.25 16.25a6.25 6.2500003 0 0 1 6.25 6.25 6.25 6.2500003 0 0 1 -6.25 6.25 6.25 6.2500003 0 0 1 -6.25-6.25 6.25 6.2500003 0 0 1 6.25-6.25z"/><g fill="#ffd42a"><ellipse cx="240.536" cy="454.148" rx="11.25" ry="11.25"/><path d="m274.28571 443.89792h25v4.750001h-25z"/><path d="m274.28571 449.21661h22.5v4.750001h-22.5z"/><path d="m274.28571 454.39792h22.5v4.750001h-22.5z"/><path d="m274.28571 459.64792h25v4.750001h-25z"/></g><ellipse cx="240.786" cy="454.148" fill="#0f0" rx="2.275" ry="2.275"/></g></svg>